<svg width="288.1" height="72.401" viewBox="0 0 288.1 72.401" xmlns="http://www.w3.org/2000/svg"><g id="svgGroup" stroke-linecap="round" fill-rule="evenodd" font-size="9pt" stroke="#000" stroke-width="0.25mm" fill="#d98326" style="stroke:#000;stroke-width:0.25mm;fill:#d98326"><path d="M 230.2 65.6 L 223.6 72.4 L 189.6 39 L 189.6 71.2 L 180.1 71.2 L 180.1 1.2 L 189.6 1.2 L 189.6 33.1 L 219.4 0.9 L 225.8 6.8 L 198.5 35.2 L 230.2 65.6 Z M 117.3 65.3 L 122.1 57.3 Q 125.7 60.3 130.2 62.2 A 23.348 23.348 0 0 0 135.57 63.71 A 32.118 32.118 0 0 0 140.7 64.1 A 27.981 27.981 0 0 0 145.247 63.754 Q 147.67 63.354 149.631 62.494 A 13.701 13.701 0 0 0 152.1 61.1 Q 156.148 58.209 156.295 53.366 A 12.116 12.116 0 0 0 156.3 53 A 11.94 11.94 0 0 0 155.963 50.107 A 9.816 9.816 0 0 0 155.1 47.85 A 8.097 8.097 0 0 0 153.9 46.194 Q 152.63 44.813 150.484 43.471 A 25.81 25.81 0 0 0 150.45 43.45 Q 147.334 41.508 141.565 39.28 A 118.584 118.584 0 0 0 140.3 38.8 Q 133.1 36 128.8 33.15 A 21.931 21.931 0 0 1 125.711 30.703 Q 123.994 29.053 122.938 27.188 A 13.303 13.303 0 0 1 122.65 26.65 Q 120.8 23 120.8 18 Q 120.8 13 123.55 8.95 Q 126.3 4.9 131.65 2.45 A 25.558 25.558 0 0 1 137.55 0.615 Q 140.793 0 144.6 0 Q 150.8 0 155.75 1.25 Q 160.7 2.5 165.4 4.8 L 161.9 12.9 A 31.496 31.496 0 0 0 157.774 10.881 A 41.686 41.686 0 0 0 153.95 9.55 Q 149.4 8.2 144.4 8.2 A 27.187 27.187 0 0 0 140.37 8.48 Q 138.238 8.8 136.5 9.487 A 12.616 12.616 0 0 0 134 10.8 A 9.902 9.902 0 0 0 131.837 12.765 A 7.359 7.359 0 0 0 130.2 17.5 A 10.464 10.464 0 0 0 130.492 20.022 A 8.562 8.562 0 0 0 131.3 22.1 Q 132.356 24.019 135.391 25.847 A 23.503 23.503 0 0 0 135.65 26 A 33.003 33.003 0 0 0 137.866 27.172 Q 140.135 28.275 143.346 29.523 A 130.016 130.016 0 0 0 145.4 30.3 A 81.228 81.228 0 0 1 150.378 32.329 Q 154.764 34.3 157.75 36.4 A 26.044 26.044 0 0 1 160.79 38.878 Q 163.013 41.006 164.2 43.35 A 17.579 17.579 0 0 1 165.941 49.213 A 22.155 22.155 0 0 1 166.1 51.9 A 21.71 21.71 0 0 1 165.433 57.401 A 17.105 17.105 0 0 1 162.85 63 Q 159.6 67.6 153.85 70 A 30.521 30.521 0 0 1 146.44 72.004 A 40.027 40.027 0 0 1 140.7 72.4 Q 133.4 72.4 127.4 70.45 A 38.206 38.206 0 0 1 122.033 68.268 A 28.433 28.433 0 0 1 117.3 65.3 Z M 264 71.2 L 254.5 71.2 L 254.5 44.6 L 230.2 5.1 L 238.2 0.3 L 259.6 35.8 L 280.6 0.7 L 288.1 5.1 L 264 44.6 L 264 71.2 Z M 113.3 68.7 L 104.6 72.2 L 96.8 52.2 L 64.4 52.2 L 56.6 72 L 48.5 68.7 L 75.9 1.2 L 86.3 1.2 L 113.3 68.7 Z M 31 71.2 L 21.5 71.2 L 21.5 9.6 L 0 9.6 L 0 1.2 L 52.5 1.2 L 52.5 9.6 L 31 9.6 L 31 71.2 Z M 80.6 10.6 L 67.4 44.2 L 93.7 44.2 L 80.6 10.6 Z" vector-effect="non-scaling-stroke"/></g></svg>